<svg width="1888" height="104" viewBox="0 0 1888 104" fill="none" xmlns="http://www.w3.org/2000/svg">
<path d="M18.6681 12.45C17.5681 10.45 15.8681 8.35005 13.4681 6.45005C12.2681 5.45005 10.9681 4.55005 9.46805 3.85005C8.76805 3.45005 7.96805 3.05005 7.16805 2.75005L6.76805 2.65005L6.16805 2.55005C5.76805 2.45005 5.36805 2.35005 5.06805 2.25005C4.26805 2.15005 3.56805 2.15005 2.76805 2.05005C2.66805 2.85005 2.56805 3.55005 2.56805 4.25005C2.56805 4.65005 2.56805 5.05005 2.56805 5.45005C2.56805 5.65005 2.56805 5.85005 2.66805 6.05005V6.35005V6.55005C2.86805 7.45005 3.16805 8.35005 3.46805 9.15005C4.16805 10.75 5.06805 12.15 5.96805 13.35C7.86805 15.75 10.0681 17.45 11.9681 18.55C13.9681 19.65 15.6681 20.25 16.8681 20.4501C18.0681 20.75 18.7681 20.65 18.7681 20.75C18.7681 20.75 16.0681 19.95 12.8681 17.25C11.2681 15.85 9.56805 14.05 8.16805 11.75C7.56805 10.55 6.96805 9.25005 6.46805 7.95005C6.26805 7.25005 6.06805 6.65005 5.96805 5.95005V5.85005L6.16805 5.95005C6.86805 6.15005 7.56805 6.45005 8.16805 6.75005C9.46805 7.35005 10.7681 8.05005 11.8681 8.75005C14.1681 10.25 15.9681 11.85 17.3681 13.45C18.6681 15.05 19.4681 16.55 19.7681 17.65C20.0681 18.75 20.0681 19.4501 20.0681 19.4501C20.0681 19.4501 20.2681 18.75 20.2681 17.55C20.2681 16.35 19.7681 14.45 18.6681 12.45Z" fill="#CFAA59"/>
<path d="M21.568 20.55C19.968 20.55 19.968 23.05 21.568 23.05C23.168 23.05 23.168 20.55 21.568 20.55Z" fill="#CFAA59"/>
<path d="M12.768 14.85C15.068 14.85 15.068 11.35 12.768 11.35C10.468 11.35 10.468 14.85 12.768 14.85Z" fill="#CFAA59"/>
<path d="M31.368 29.15C31.368 29.05 31.368 28.95 31.268 28.85C31.268 28.75 31.168 28.65 31.168 28.45C31.068 28.25 31.068 27.95 30.968 27.75C30.768 27.25 30.568 26.85 30.268 26.45C29.968 26.05 29.568 25.75 29.268 25.65C28.468 25.35 27.868 25.45 27.468 25.55C27.068 25.65 26.868 25.75 26.868 25.75C26.868 25.75 27.068 25.75 27.468 25.85C27.768 25.95 28.268 26.15 28.668 26.55C28.968 26.95 29.168 27.55 29.268 28.25C29.268 28.45 29.268 28.65 29.368 28.85V29.15C29.368 29.25 29.368 29.15 29.368 29.25C29.368 29.25 29.268 29.25 29.168 29.15L28.868 29.05C28.668 28.95 28.468 28.95 28.268 28.85C27.568 28.55 27.068 28.25 26.768 27.85C26.468 27.45 26.268 26.95 26.168 26.55C26.068 26.15 26.068 25.95 26.068 25.95C26.068 25.95 25.968 26.15 25.868 26.55C25.768 26.95 25.568 27.55 25.768 28.25C25.868 28.65 26.068 29.05 26.368 29.45C26.668 29.85 27.068 30.15 27.468 30.45C27.668 30.55 27.868 30.75 28.068 30.85C28.168 30.95 28.268 30.95 28.368 31.05C28.468 31.15 28.568 31.15 28.768 31.25C29.668 31.55 30.568 31.85 31.568 32.25H31.668C31.668 31.25 31.668 30.35 31.468 29.45L31.368 29.15Z" fill="#CFAA59"/>
<path d="M30.768 21.25C30.668 21.25 30.568 21.15 30.568 21.15C30.468 21.15 30.368 21.05 30.268 21.05C30.068 20.95 29.868 20.95 29.668 20.85C29.268 20.75 28.868 20.75 28.468 20.75C28.068 20.75 27.668 20.85 27.368 21.05C26.768 21.45 26.468 21.95 26.368 22.25C26.268 22.55 26.268 22.75 26.268 22.75C26.268 22.75 26.368 22.65 26.668 22.45C26.868 22.25 27.268 22.05 27.768 21.95C28.168 21.95 28.668 22.05 29.268 22.35C29.368 22.45 29.568 22.55 29.668 22.55L29.868 22.65C29.868 22.65 29.968 22.65 29.868 22.65L29.768 22.75L29.568 22.95C29.468 23.05 29.268 23.15 29.168 23.25C28.668 23.65 28.168 23.85 27.668 23.85C27.168 23.85 26.768 23.75 26.468 23.65C26.168 23.55 25.968 23.45 25.968 23.45C25.968 23.45 26.068 23.65 26.268 23.85C26.468 24.15 26.768 24.55 27.468 24.75C27.768 24.85 28.168 24.95 28.568 24.95C28.968 24.95 29.368 24.85 29.768 24.65C29.968 24.55 30.168 24.45 30.368 24.35C30.468 24.25 30.568 24.25 30.668 24.15C30.768 24.05 30.768 24.05 30.968 23.95C31.568 23.55 32.268 23.05 32.968 22.45H33.068C32.368 21.95 31.768 21.55 31.068 21.15L30.768 21.25Z" fill="#CFAA59"/>
<path d="M24.268 26.75C23.968 26.55 23.868 26.45 23.868 26.45C23.868 26.45 23.968 26.65 24.068 26.95C24.168 27.25 24.268 27.65 24.268 28.15C24.268 28.65 24.068 29.0499 23.668 29.5499C23.568 29.6499 23.468 29.85 23.368 29.95L23.168 30.15C23.168 30.2499 23.068 30.35 23.068 30.25L22.968 30.0499C22.868 29.8499 22.768 29.7499 22.768 29.65C22.468 29.05 22.368 28.55 22.368 28.15C22.368 27.75 22.668 27.35 22.768 27.15C22.968 26.95 23.068 26.85 23.068 26.75C23.068 26.75 22.868 26.75 22.568 26.85C22.268 26.95 21.768 27.15 21.468 27.75C21.268 28.05 21.168 28.45 21.168 28.85C21.168 29.25 21.168 29.6499 21.268 30.0499C21.268 30.2499 21.368 30.4499 21.468 30.65C21.468 30.7499 21.568 30.85 21.568 30.95C21.568 30.95 21.668 31.05 21.668 31.15L21.768 31.45C22.168 32.15 22.568 32.8499 22.968 33.5499C23.468 32.8499 23.968 32.2499 24.368 31.5499C24.468 31.3499 24.468 31.35 24.568 31.25C24.668 31.15 24.668 31.05 24.668 30.95C24.768 30.75 24.868 30.55 24.968 30.35C25.068 29.95 25.168 29.55 25.268 29.15C25.268 28.7499 25.268 28.3499 25.068 28.0499C24.968 27.3499 24.568 26.95 24.268 26.75Z" fill="#CFAA59"/>
<path d="M39.068 9.05004L38.768 8.75004L38.568 8.55004C37.768 7.85004 36.968 7.25004 36.168 6.65004C34.468 5.65004 32.668 5.05004 31.168 4.85004C29.668 4.65004 28.468 4.85004 27.668 5.15004C26.868 5.35004 26.468 5.55004 26.468 5.55004C26.468 5.55004 26.868 5.55004 27.668 5.65004C28.468 5.75004 29.468 5.95004 30.668 6.45004C31.868 6.95004 33.168 7.75004 34.468 8.85004C35.068 9.45004 35.768 10.05 36.368 10.75C36.468 10.85 36.368 10.85 36.368 10.85C36.368 10.85 36.068 10.85 35.868 10.85C34.968 10.95 34.068 10.85 33.268 10.75C31.668 10.55 30.268 9.85004 29.268 8.95004C28.268 8.15004 27.568 7.15004 27.168 6.55004C26.768 5.85004 26.568 5.45004 26.568 5.45004C26.568 5.45004 26.568 5.95004 26.768 6.75004C26.968 7.55004 27.268 8.75004 28.168 10.05C29.068 11.35 30.668 12.75 32.668 13.45C33.668 13.75 34.868 13.95 35.968 14.05C36.268 14.05 36.468 14.05 36.968 14.05C37.468 14.05 37.968 13.95 38.468 13.85C38.968 13.75 39.468 13.65 39.968 13.55L41.268 13.15L42.168 12.85C41.568 12.05 41.168 11.35 40.568 10.55C40.268 10.15 39.968 9.75004 39.568 9.45004C39.468 9.35004 39.268 9.15004 39.068 9.05004Z" fill="#CFAA59"/>
<path d="M31.268 9.65001C32.868 9.35001 32.368 6.85001 30.768 7.25001C29.168 7.55001 29.668 9.95001 31.268 9.65001Z" fill="#CFAA59"/>
<path d="M44.468 5.25C42.868 5.25 42.868 7.75 44.468 7.75C46.168 7.75 46.168 5.25 44.468 5.25Z" fill="#CFAA59"/>
<path d="M48.568 15.55C50.768 15.55 50.768 12.05 48.568 12.05C46.268 12.05 46.268 15.55 48.568 15.55Z" fill="#CFAA59"/>
<path d="M55.668 10.95C55.668 10.95 55.568 8.94997 55.268 7.94997C54.768 6.44997 54.068 4.84997 52.968 3.54997C52.568 3.14997 52.068 2.74997 51.668 2.34997C50.468 1.64997 49.068 1.24997 47.868 1.24997C46.668 1.14997 45.568 1.34997 44.568 1.74997C43.768 2.04997 42.968 2.64997 42.468 3.24997C41.468 4.54997 41.368 5.84997 41.368 6.54997C41.368 7.34997 41.568 7.74997 41.568 7.74997C41.568 7.74997 41.468 7.34997 41.568 6.54997C41.668 5.74997 41.868 4.54997 42.968 3.54997C44.068 2.54997 45.968 1.94997 48.068 2.34997C49.068 2.54997 50.168 2.94997 50.968 3.74997C51.168 3.84997 51.268 4.04997 51.368 4.14997C51.368 4.14997 53.568 6.84997 53.368 10.55C53.368 10.65 53.668 13.15 51.768 14.95C50.368 16.25 47.968 19.45 39.568 19.25C39.468 19.05 39.368 18.95 39.268 18.75C39.168 18.65 39.068 18.45 38.968 18.35C38.868 18.25 38.768 18.25 38.668 18.15C38.868 18.15 39.168 18.15 39.368 18.15C40.468 18.05 41.368 17.65 42.268 17.25C43.068 16.75 43.868 16.15 44.368 15.45C44.868 14.75 45.068 13.85 44.968 13.25C44.868 12.65 44.768 12.45 44.768 12.45C44.768 12.45 44.768 12.75 44.668 13.15C44.568 13.55 44.168 13.95 43.668 14.35C42.568 15.35 40.568 16.05 37.568 16.15L34.268 15.95C34.068 15.95 33.968 15.85 33.768 15.85C32.468 15.75 30.368 15.35 30.368 15.35C30.368 15.35 32.468 16.35 33.568 17.15C34.268 17.65 35.168 18.35 36.168 19.15C34.668 18.85 33.168 18.25 31.768 17.55C30.868 17.05 29.768 16.75 28.868 16.25C31.768 18.65 34.968 20.15 38.068 20.85C38.168 20.95 38.268 21.15 38.468 21.35C38.768 21.75 38.968 22.15 39.168 22.55C39.568 23.35 39.868 24.15 39.868 24.75C39.968 25.45 39.768 25.95 39.568 26.35C39.368 26.75 39.168 26.85 39.268 26.85C39.268 26.85 39.468 26.85 39.768 26.65C40.068 26.45 40.668 26.05 40.868 24.95C41.068 23.95 40.968 22.65 40.568 21.45C40.568 21.35 40.568 21.35 40.468 21.25C40.968 21.35 41.368 21.35 41.868 21.35C53.368 21.85 55.668 12.75 55.668 10.95Z" fill="#CFAA59"/>
<path d="M66.668 5.54995C69.868 6.44995 73.468 6.74995 77.268 6.34995C77.768 6.34995 78.168 6.24995 78.568 6.24995C78.268 6.44995 77.968 6.64995 77.568 6.84995C76.568 7.34995 75.368 7.64995 73.868 7.84995C71.068 8.24995 67.468 7.94995 63.568 6.84995C62.568 6.54995 61.668 6.24995 60.568 5.84995C59.468 5.44995 58.368 5.04995 57.168 4.74995C56.168 4.44995 55.068 4.24995 53.768 4.14995C54.368 5.14995 54.868 6.14995 55.268 7.24995C55.668 7.34995 56.168 7.34995 56.568 7.44995C57.668 7.64995 58.768 7.94995 59.868 8.24995C60.868 8.54995 62.068 8.84995 63.168 9.04995C67.468 9.84995 71.268 9.74995 74.168 9.04995C75.668 8.64995 76.868 8.14995 77.868 7.54995C78.468 7.14995 78.968 6.74995 79.368 6.24995C82.268 5.74995 84.968 4.84995 87.368 4.24995C88.868 3.84995 90.368 3.54995 91.768 3.34995C93.168 3.14995 94.468 3.04995 95.568 3.14995C97.968 3.24995 99.868 3.74995 101.168 4.14995C102.468 4.54995 103.168 4.84995 103.168 4.84995C103.168 4.84995 102.568 4.44995 101.268 3.84995C100.068 3.24995 98.168 2.54995 95.668 2.14995C94.468 1.94995 93.068 1.94995 91.568 2.04995C90.068 2.14995 88.568 2.34995 86.968 2.74995C84.968 3.14995 82.868 3.74995 80.668 4.14995V4.04995H80.568C80.568 4.04995 80.568 4.04995 80.568 4.14995C79.368 4.34995 78.168 4.64995 76.868 4.74995C73.268 5.14995 69.868 4.94995 66.768 4.24995C63.668 3.64995 60.968 2.64995 58.568 2.14995C56.168 1.64995 54.168 1.44995 52.768 1.44995C51.368 1.44995 50.668 1.64995 50.668 1.54995C50.668 1.54995 53.768 1.44995 58.268 2.94995C60.868 3.64995 63.468 4.74995 66.668 5.54995Z" fill="#CFAA59"/>
<path d="M68.268 10.65C67.768 10.95 67.168 11.05 66.368 11.15C65.568 11.15 64.668 11.05 63.568 10.85C61.468 10.45 59.068 9.55 55.968 8.75H55.868C55.968 9.05 56.068 9.45 56.068 9.85V9.95C56.068 10.25 56.168 10.65 56.168 10.95C58.968 11.35 61.468 11.85 63.568 11.95C64.668 11.95 65.668 11.95 66.468 11.75C67.268 11.55 67.968 11.25 68.468 10.85C68.968 10.45 69.168 10.15 69.368 9.85C69.568 9.65 69.568 9.45 69.568 9.45C69.568 9.45 69.468 9.55 69.268 9.75C69.068 10.15 68.768 10.45 68.268 10.65Z" fill="#CFAA59"/>
<path d="M47.5681 10.25C47.1681 10.75 46.8681 11.35 46.5681 11.85C46.9681 11.15 47.6681 10.65 48.6681 10.65C49.4681 10.65 50.0681 10.95 50.4681 11.45C50.6681 11.25 50.9681 11.15 51.2681 11.05C51.6681 10.95 52.1681 10.85 52.6681 10.85C52.8681 9.65002 52.4681 8.15002 52.4681 8.15002C51.1681 8.45002 48.3681 9.25002 47.5681 10.25Z" fill="#CFAA59"/>
<path d="M50.5681 4.54998C50.0681 4.84998 49.5681 5.34998 49.3681 5.94998C49.2681 6.24998 49.1681 6.54998 49.1681 6.84998C49.1681 7.14998 49.1681 7.74998 48.5681 8.34998L52.4681 7.24998C52.4681 7.14998 51.5681 5.04998 50.8681 4.34998C50.7681 4.54998 50.6681 4.54998 50.5681 4.54998Z" fill="#CFAA59"/>
<path d="M60.968 19.25H60.668C60.468 19.25 60.368 19.25 60.168 19.15C59.568 19.05 59.068 18.85 58.668 18.55C58.368 18.25 58.168 17.85 58.068 17.55C57.968 17.25 57.968 17.05 57.968 17.05C57.968 17.05 57.868 17.25 57.768 17.55C57.668 17.85 57.568 18.45 57.868 19.15C57.968 19.45 58.268 19.85 58.568 20.05C58.868 20.35 59.268 20.55 59.668 20.75C59.868 20.85 60.068 20.95 60.268 20.95C60.368 20.95 60.468 21.05 60.568 21.05C60.568 21.05 60.768 21.05 60.768 21.15H61.068C61.868 21.25 62.668 21.25 63.468 21.35V21.25C63.168 20.45 62.968 19.55 62.668 18.85C62.568 18.65 62.568 18.55 62.568 18.45C62.568 18.35 62.468 18.25 62.468 18.15C62.368 17.95 62.268 17.75 62.168 17.55C61.968 17.15 61.668 16.85 61.368 16.55C61.068 16.25 60.668 16.05 60.368 16.05C59.668 15.85 59.168 15.95 58.868 16.05C58.568 16.15 58.368 16.25 58.368 16.25C58.368 16.25 58.568 16.25 58.868 16.35C59.168 16.45 59.568 16.55 59.968 16.85C60.368 17.15 60.568 17.65 60.768 18.25C60.768 18.45 60.868 18.55 60.868 18.75L60.968 19.05C60.968 19.05 61.068 19.25 60.968 19.25Z" fill="#CFAA59"/>
<path d="M55.068 16.75C55.268 16.55 55.368 16.45 55.368 16.45C55.368 16.45 55.168 16.45 54.968 16.55C54.668 16.65 54.268 16.85 53.968 17.35C53.768 17.65 53.668 17.95 53.668 18.25C53.668 18.65 53.668 18.95 53.768 19.35C53.768 19.55 53.868 19.75 53.868 19.85C53.868 19.95 53.968 20.05 53.968 20.15C53.968 20.15 54.068 20.25 54.068 20.35L54.168 20.55C54.468 21.15 54.868 21.75 55.268 22.35C55.768 21.75 56.168 21.15 56.568 20.65C56.668 20.45 56.668 20.45 56.768 20.35C56.768 20.25 56.868 20.15 56.868 20.15C56.968 19.95 57.068 19.85 57.068 19.65C57.168 19.35 57.268 18.95 57.368 18.55C57.368 18.15 57.368 17.85 57.268 17.55C57.068 16.95 56.768 16.65 56.468 16.45C56.268 16.25 56.168 16.25 56.168 16.25C56.168 16.25 56.268 16.35 56.368 16.65C56.468 16.95 56.568 17.25 56.568 17.65C56.568 18.05 56.368 18.45 56.068 18.95C55.968 19.05 55.868 19.15 55.768 19.25L55.668 19.45C55.668 19.55 55.568 19.65 55.568 19.55L55.468 19.35C55.368 19.25 55.368 19.05 55.268 18.95C55.068 18.45 54.868 18.05 54.968 17.65C54.768 17.25 54.968 16.95 55.068 16.75Z" fill="#CFAA59"/>
<path d="M64.868 13.85C64.268 13.45 63.668 13.05 63.068 12.75L62.868 12.65C62.768 12.65 62.668 12.55 62.668 12.55C62.568 12.55 62.468 12.45 62.368 12.45C62.168 12.35 61.968 12.35 61.868 12.25C61.468 12.15 61.168 12.15 60.768 12.15C60.368 12.15 60.068 12.25 59.868 12.35C59.368 12.65 59.168 13.05 59.068 13.35C58.968 13.65 58.968 13.75 58.968 13.75C58.968 13.75 59.068 13.65 59.268 13.45C59.468 13.25 59.768 13.15 60.168 13.05C60.568 13.05 60.968 13.15 61.468 13.45C61.568 13.55 61.668 13.55 61.868 13.65L62.068 13.75L61.968 13.85L61.768 14.15C61.668 14.25 61.568 14.35 61.468 14.35C61.068 14.65 60.568 14.85 60.168 14.85C59.768 14.85 59.368 14.75 59.168 14.65C58.868 14.55 58.768 14.45 58.768 14.45C58.768 14.45 58.868 14.55 58.968 14.85C59.168 15.05 59.468 15.45 59.968 15.65C60.268 15.75 60.568 15.85 60.968 15.85C61.368 15.85 61.668 15.75 62.068 15.65C62.268 15.55 62.368 15.55 62.568 15.45C62.668 15.45 62.768 15.35 62.768 15.35C62.868 15.35 62.868 15.25 63.068 15.15C63.668 14.75 64.268 14.35 64.868 13.85Z" fill="#CFAA59"/>
<path d="M56.968 15.75C58.568 15.75 58.568 13.25 56.968 13.25C55.368 13.25 55.368 15.75 56.968 15.75Z" fill="#CFAA59"/>
<path d="M12.668 1.84999C14.168 2.04999 15.968 2.44999 17.568 3.44999C18.368 3.84999 19.068 4.44999 19.768 5.04999C20.368 5.54999 20.868 6.04999 21.368 6.64999C21.668 6.94999 21.868 7.24999 22.168 7.64999C22.868 8.54999 23.368 9.54999 23.768 10.45C24.168 11.45 24.568 12.35 24.768 13.35C25.268 15.25 25.468 17.15 25.368 18.65C25.368 20.25 25.068 21.45 24.768 22.25C24.468 23.05 24.168 23.45 24.168 23.45C24.168 23.45 24.568 23.15 25.068 22.35C25.568 21.65 26.168 20.35 26.568 18.75C26.968 17.15 27.068 15.15 26.768 12.95C26.568 11.85 26.368 10.75 25.868 9.54999C25.468 8.44999 24.868 7.24999 24.068 6.24999C23.968 6.14999 23.968 6.04999 23.868 6.04999C23.368 5.44999 22.868 4.84999 22.268 4.24999C21.068 3.14999 19.768 2.24999 18.368 1.64999C16.268 0.749989 14.168 0.549989 12.568 0.649989C11.068 0.849989 9.76803 1.24999 8.86803 1.54999C8.06803 1.84999 7.66803 2.04999 7.66803 2.04999C7.66803 2.04999 8.16803 1.94999 9.06803 1.84999C9.86803 1.74999 11.168 1.64999 12.668 1.84999Z" fill="#CFAA59"/>
<path d="M24.568 5.55C25.668 5.15 26.668 4.75 27.668 4.25C28.168 4.05 28.668 3.75 29.168 3.45C29.468 3.35 29.668 3.25 29.868 3.15C30.068 3.05 30.268 2.95 30.568 2.85C31.468 2.55 32.368 2.35 33.268 2.25C35.068 2.15 36.668 2.45 37.868 3.05C39.068 3.65 39.868 4.55 40.268 5.25C40.668 5.95 40.768 6.45 40.768 6.45C40.768 6.45 40.768 5.95 40.568 5.15C40.368 4.35 39.768 3.15 38.468 2.05C37.168 1.05 35.368 0.25 33.168 0.25C32.068 0.25 30.968 0.35 29.768 0.65C29.468 0.75 29.168 0.85 28.968 0.95C28.668 1.05 28.368 1.25 28.168 1.35L26.668 2.05C25.668 2.55 24.668 2.95 23.768 3.35C23.468 3.45 23.068 3.65 22.768 3.75C23.368 4.25 23.868 4.85 24.368 5.55C24.368 5.55 24.468 5.55 24.568 5.55Z" fill="#CFAA59"/>
<path d="M19.2681 5.24995L18.6681 5.44995C18.2681 5.54995 17.8681 5.64995 17.4681 5.64995C16.6681 5.74995 15.9681 5.64995 15.2681 5.44995C13.9681 5.14995 12.9681 4.44995 12.3681 3.94995C11.7681 3.34995 11.5681 2.94995 11.5681 2.94995C11.5681 2.94995 11.6681 3.44995 12.0681 4.14995C12.4681 4.84995 13.3681 5.94995 14.8681 6.54995C15.5681 6.84995 16.4681 7.14995 17.4681 7.24995C17.9681 7.24995 18.4681 7.24995 18.9681 7.24995C19.4681 7.14995 19.8681 7.14995 20.4681 7.04995C20.5681 7.04995 20.7681 6.94995 20.8681 6.94995C20.3681 6.24995 19.8681 5.74995 19.2681 5.24995Z" fill="#CFAA59"/>
<path d="M9.66806 39.3501L9.36806 39.0501L9.16806 38.8501C8.46806 38.0501 7.76806 37.2501 7.26806 36.3501C6.16806 34.6501 5.56806 32.9501 5.36806 31.4501C5.16806 29.9501 5.36806 28.7501 5.56806 27.9501C5.76806 27.2501 5.96806 26.8501 5.96806 26.8501C5.96806 26.8501 5.96806 27.2501 6.06806 28.0501C6.16806 28.8501 6.36806 29.8501 6.96806 31.0501C7.46806 32.2501 8.36806 33.5501 9.46806 34.7501C10.0681 35.3501 10.6681 35.9501 11.3681 36.6501C11.4681 36.7501 11.4681 36.7501 11.4681 36.6501C11.4681 36.6501 11.4681 36.3501 11.4681 36.1501C11.4681 35.2501 11.4681 34.3501 11.2681 33.5501C10.9681 31.9501 10.2681 30.5501 9.46806 29.5501C8.56806 28.5501 7.66806 27.8501 6.96806 27.4501C6.26806 27.0501 5.86806 26.8501 5.86806 26.8501C5.86806 26.8501 6.36806 26.8501 7.16806 26.9501C7.96806 27.0501 9.16806 27.3501 10.5681 28.2501C11.8681 29.0501 13.2681 30.6501 14.0681 32.7501C14.4681 33.7501 14.6681 34.8501 14.6681 36.0501C14.6681 36.3501 14.6681 36.5501 14.6681 37.0501C14.6681 37.5501 14.5681 38.0501 14.5681 38.5501C14.4681 39.0501 14.3681 39.5501 14.2681 40.0501L13.8681 41.3501L13.5681 42.2501C12.7681 41.7501 12.0681 41.2501 11.2681 40.6501C10.8681 40.3501 10.4681 40.0501 10.1681 39.7501C10.0681 39.7501 9.86806 39.5501 9.66806 39.3501Z" fill="#CFAA59"/>
<path d="M10.1681 31.55C9.86806 33.15 7.36806 32.65 7.66806 31.05C7.96806 29.45 10.4681 29.95 10.1681 31.55Z" fill="#CFAA59"/>
<path d="M6.06805 44.85C6.06805 43.25 8.56805 43.15 8.56805 44.75C8.56805 46.45 6.06805 46.45 6.06805 44.85Z" fill="#CFAA59"/>
<path d="M16.368 48.65C16.468 50.95 12.968 50.95 12.868 48.75C12.868 46.55 16.368 46.45 16.368 48.65Z" fill="#CFAA59"/>
<path d="M11.9681 55.95C11.9681 55.95 9.96807 55.85 8.96807 55.55C7.46807 55.05 5.76807 54.35 4.56807 53.35C4.16807 52.95 3.76807 52.55 3.36807 52.05C2.56807 50.85 2.06807 49.55 2.06807 48.35C1.96807 47.15 2.16807 46.05 2.46807 45.05C2.76807 44.05 3.36807 43.35 3.96807 42.85C5.26807 41.75 6.56807 41.65 7.26807 41.65C8.06807 41.65 8.46807 41.75 8.46807 41.75C8.46807 41.75 8.06807 41.65 7.26807 41.75C6.46807 41.85 5.26807 42.15 4.26807 43.25C3.26807 44.35 2.76807 46.25 3.16807 48.35C3.36807 49.35 3.86807 50.45 4.66807 51.25C4.76807 51.35 4.96807 51.55 5.16807 51.65C5.16807 51.65 7.86807 53.85 11.5681 53.45C11.6681 53.45 14.1681 53.75 15.9681 51.75C17.2681 50.25 20.3681 47.85 19.9681 39.45C19.7681 39.35 19.6681 39.25 19.4681 39.15C19.3681 39.05 19.1681 38.95 19.0681 38.85C18.9681 38.75 18.8681 38.65 18.7681 38.55C18.7681 38.75 18.7681 39.05 18.7681 39.25C18.6681 40.35 18.3681 41.35 17.8681 42.15C17.3681 42.95 16.7681 43.75 16.0681 44.25C15.3681 44.75 14.4681 45.05 13.8681 44.95C13.2681 44.85 13.0681 44.75 13.0681 44.75C13.0681 44.75 13.3681 44.75 13.7681 44.65C14.1681 44.55 14.4681 44.15 14.8681 43.65C15.8681 42.55 16.4681 40.55 16.4681 37.55L16.1681 34.25C16.1681 34.05 16.0681 33.95 16.0681 33.75C15.8681 32.45 15.5681 30.35 15.5681 30.35C15.5681 30.35 16.5681 32.45 17.3681 33.45C17.8681 34.15 18.5681 35.05 19.4681 35.95C19.1681 34.45 18.5681 32.95 17.7681 31.55C17.2681 30.65 16.9681 29.55 16.4681 28.65C18.9681 31.55 20.4681 34.65 21.2681 37.75C21.4681 37.85 21.5681 37.95 21.7681 38.15C22.1681 38.45 22.5681 38.65 22.9681 38.85C23.7681 39.25 24.5681 39.45 25.1681 39.55C25.8681 39.65 26.3681 39.45 26.7681 39.25C27.0681 39.05 27.2681 38.85 27.2681 38.85C27.2681 38.85 27.2681 39.05 27.0681 39.35C26.8681 39.65 26.4681 40.25 25.4681 40.45C24.4681 40.75 23.1681 40.65 21.9681 40.25C21.8681 40.25 21.8681 40.25 21.7681 40.15C21.8681 40.65 21.8681 41.05 21.8681 41.55C22.8681 53.35 13.7681 55.85 11.9681 55.95Z" fill="#CFAA59"/>
<path d="M6.86804 67.0501C7.76804 70.1501 8.26804 73.8501 7.96804 77.6501C7.96804 78.0501 7.86804 78.5501 7.86804 78.9501C8.06804 78.6501 8.26804 78.2501 8.46804 77.9501C8.96804 76.9501 9.26804 75.7501 9.36804 74.2501C9.66804 71.4501 9.26804 67.8501 8.06804 63.9501C7.76804 62.9501 7.36804 62.0501 6.96804 60.9501C6.56804 59.8501 6.16804 58.7501 5.76804 57.5501C5.46804 56.5501 5.16804 55.4501 5.06804 54.1501C6.06804 54.7501 7.06804 55.2501 8.16804 55.6501C8.26804 56.0501 8.36804 56.5501 8.36804 56.9501C8.66804 58.0501 8.96804 59.1501 9.26804 60.2501C9.56804 61.2501 9.96804 62.4501 10.168 63.4501C11.068 67.7501 11.068 71.4501 10.368 74.4501C10.068 75.9501 9.56804 77.2501 8.86804 78.2501C8.46804 78.8501 8.06804 79.3501 7.66804 79.8501C7.16804 82.7501 6.46804 85.4501 5.86804 87.9501C5.46804 89.4501 5.16804 90.9501 5.06804 92.3501C4.86804 93.7501 4.76804 95.0501 4.86804 96.2501C5.06804 98.6501 5.56804 100.55 5.96804 101.75C6.36804 103.05 6.76804 103.75 6.76804 103.75C6.76804 103.75 6.36804 103.15 5.76804 101.85C5.16804 100.65 4.36804 98.7501 3.96804 96.3501C3.76804 95.0501 3.66804 93.7501 3.76804 92.2501C3.86804 90.7501 4.06804 89.2501 4.36804 87.6501C4.76804 85.6501 5.26804 83.5501 5.66804 81.3501C5.66804 81.3501 5.66804 81.3501 5.56804 81.3501V81.2501C5.56804 81.2501 5.56804 81.2501 5.66804 81.2501C5.86804 80.0501 6.06804 78.8501 6.16804 77.5501C6.46804 73.9501 6.16804 70.5501 5.46804 67.4501C4.76804 64.3501 3.76804 61.6501 3.16804 59.2501C2.56804 56.8501 2.36804 54.8501 2.36804 53.5501C2.36804 52.1501 2.46804 51.4501 2.46804 51.4501C2.46804 51.4501 2.36804 54.5501 4.06804 59.0501C4.76804 61.2501 5.96804 63.8501 6.86804 67.0501Z" fill="#CFAA59"/>
<path d="M11.968 68.55C12.168 68.05 12.368 67.35 12.368 66.55C12.368 65.75 12.268 64.85 12.068 63.85C11.668 61.75 10.668 59.35 9.86804 56.35V56.25C10.168 56.35 10.568 56.35 10.968 56.45H11.068C11.368 56.45 11.768 56.55 12.068 56.45C12.468 59.25 13.068 61.65 13.168 63.75C13.268 64.85 13.168 65.85 13.068 66.75C12.868 67.55 12.568 68.25 12.268 68.75C11.868 69.25 11.568 69.45 11.368 69.65C11.168 69.85 10.968 69.85 10.968 69.85C10.968 69.85 11.068 69.75 11.268 69.55C11.468 69.35 11.768 69.05 11.968 68.55Z" fill="#CFAA59"/>
<path d="M11.0681 47.8501C11.5681 47.4501 12.0681 47.0501 12.6681 46.8501C11.9681 47.2501 11.4681 47.9501 11.4681 48.9501C11.4681 49.7501 11.8681 50.3501 12.3681 50.7501C12.1681 50.9501 12.0681 51.2501 11.9681 51.5501C11.8681 51.9501 11.7681 52.4501 11.7681 52.9501C10.5681 53.1501 9.06805 52.7501 9.06805 52.7501C9.46805 51.4501 10.0681 48.6501 11.0681 47.8501Z" fill="#CFAA59"/>
<path d="M5.56802 50.9501C5.86802 50.4501 6.36802 49.9501 6.96802 49.7501C7.26802 49.6501 7.56802 49.5501 7.86802 49.5501C8.16802 49.5501 8.76802 49.5501 9.36802 48.8501L8.36802 52.7501C8.26802 52.7501 6.16802 51.8501 5.46802 51.2501C5.46802 51.1501 5.46802 51.0501 5.56802 50.9501Z" fill="#CFAA59"/>
<path d="M20.4681 61.0501V60.7501C20.4681 60.5501 20.4681 60.4501 20.3681 60.2501C20.2681 59.6501 20.0681 59.1501 19.7681 58.7501C19.4681 58.4501 19.0681 58.2501 18.7681 58.1501C18.4681 58.0501 18.2681 58.0501 18.2681 58.0501C18.2681 58.0501 18.4681 57.9501 18.7681 57.8501C19.0681 57.7501 19.6681 57.6501 20.2681 57.8501C20.5681 57.9501 20.9681 58.2501 21.1681 58.5501C21.4681 58.8501 21.6681 59.2501 21.8681 59.6501C21.9681 59.8501 22.0681 60.0501 22.0681 60.2501C22.0681 60.3501 22.1681 60.4501 22.1681 60.5501C22.1681 60.5501 22.1681 60.7501 22.2681 60.7501L22.3681 61.0501C22.4681 61.8501 22.5681 62.6501 22.6681 63.4501H22.5681C21.7681 63.2501 20.8681 62.9501 20.1681 62.7501C19.9681 62.6501 19.8681 62.6501 19.7681 62.6501C19.6681 62.6501 19.5681 62.5501 19.4681 62.5501C19.2681 62.4501 19.0681 62.3501 18.8681 62.2501C18.4681 62.0501 18.1681 61.7501 17.8681 61.4501C17.5681 61.1501 17.3681 60.7501 17.2681 60.4501C17.0681 59.7501 17.1681 59.2501 17.2681 58.9501C17.3681 58.6501 17.4681 58.4501 17.4681 58.4501C17.4681 58.4501 17.4681 58.6501 17.5681 58.9501C17.6681 59.2501 17.7681 59.6501 18.1681 60.0501C18.4681 60.4501 18.9681 60.6501 19.5681 60.8501C19.7681 60.8501 19.8681 60.9501 20.0681 60.9501L20.3681 61.0501C20.2681 61.0501 20.3681 61.1501 20.4681 61.0501C20.3681 61.0501 20.3681 61.0501 20.4681 61.0501C20.3681 61.0501 20.3681 61.0501 20.4681 61.0501Z" fill="#CFAA59"/>
<path d="M17.768 55.25C17.568 55.45 17.468 55.55 17.468 55.55C17.468 55.55 17.468 55.35 17.568 55.15C17.668 54.85 17.868 54.45 18.368 54.05C18.668 53.85 18.968 53.75 19.268 53.75C19.668 53.75 19.968 53.75 20.368 53.75C20.568 53.75 20.768 53.85 20.868 53.85C20.968 53.85 21.068 53.95 21.168 53.95C21.168 53.95 21.268 54.05 21.368 54.05L21.568 54.15C22.168 54.45 22.768 54.85 23.368 55.15C22.768 55.65 22.168 56.05 21.668 56.55C21.468 56.65 21.468 56.65 21.368 56.75C21.268 56.75 21.168 56.85 21.168 56.85C20.968 56.95 20.868 57.05 20.668 57.15C20.368 57.35 19.968 57.45 19.568 57.45C19.168 57.45 18.868 57.45 18.568 57.35C17.968 57.15 17.668 56.85 17.468 56.65C17.268 56.45 17.168 56.25 17.168 56.25C17.168 56.25 17.268 56.35 17.568 56.45C17.868 56.55 18.168 56.65 18.568 56.55C18.968 56.55 19.368 56.35 19.768 55.95C19.868 55.85 19.968 55.75 20.068 55.65L20.268 55.45C20.268 55.45 20.468 55.35 20.368 55.35V55.25C20.268 55.15 20.068 55.15 19.968 55.05C19.468 54.85 19.068 54.75 18.668 54.75C18.268 54.85 17.968 55.05 17.768 55.25Z" fill="#CFAA59"/>
<path d="M15.068 65.0501C14.668 64.4501 14.268 63.9501 13.968 63.3501L13.868 63.1501C13.868 63.0501 13.768 62.9501 13.768 62.9501C13.768 62.8501 13.668 62.7501 13.668 62.6501C13.568 62.4501 13.568 62.2501 13.468 62.1501C13.368 61.7501 13.368 61.4501 13.368 61.0501C13.368 60.6501 13.468 60.3501 13.568 60.1501C13.868 59.6501 14.268 59.3501 14.468 59.2501C14.768 59.1501 14.868 59.1501 14.868 59.1501C14.868 59.1501 14.768 59.2501 14.568 59.4501C14.368 59.6501 14.268 59.9501 14.168 60.3501C14.168 60.7501 14.268 61.1501 14.568 61.6501C14.668 61.7501 14.668 61.9501 14.768 62.0501L14.868 62.2501L14.968 62.1501L15.068 61.9501C15.168 61.8501 15.268 61.7501 15.268 61.5501C15.568 61.0501 15.668 60.6501 15.668 60.2501C15.668 59.8501 15.568 59.4501 15.468 59.2501C15.368 58.9501 15.268 58.8501 15.268 58.8501C15.268 58.8501 15.368 58.9501 15.668 59.0501C15.868 59.2501 16.268 59.5501 16.468 60.0501C16.568 60.3501 16.668 60.6501 16.668 61.0501C16.668 61.4501 16.568 61.7501 16.468 62.1501C16.368 62.3501 16.368 62.4501 16.268 62.6501C16.268 62.7501 16.168 62.8501 16.168 62.8501C16.068 62.9501 16.068 62.9501 15.968 63.1501C15.968 63.7501 15.568 64.4501 15.068 65.0501Z" fill="#CFAA59"/>
<path d="M16.7681 57.1501C16.7681 58.7501 14.2681 58.8501 14.2681 57.2501C14.2681 55.5501 16.7681 55.5501 16.7681 57.1501Z" fill="#CFAA59"/>
<path d="M1.96804 13.05C2.16804 14.55 2.66804 16.35 3.66804 17.95C4.06804 18.75 4.66804 19.45 5.26804 20.15C5.76804 20.75 6.36804 21.25 6.96804 21.75C7.26804 22.05 7.56804 22.25 7.96804 22.45C8.86804 23.05 9.86804 23.65 10.868 24.05C11.868 24.45 12.868 24.75 13.768 24.9501C15.668 25.35 17.568 25.5501 19.068 25.4501C20.568 25.35 21.768 25.05 22.568 24.65C23.368 24.35 23.768 24.05 23.768 24.05C23.768 24.05 23.468 24.4501 22.768 24.9501C22.068 25.4501 20.868 26.15 19.268 26.55C17.668 26.95 15.668 27.15 13.468 26.85C12.368 26.75 11.268 26.45 10.068 26.05C8.86804 25.65 7.76804 25.05 6.66804 24.35C6.56804 24.25 6.46804 24.25 6.46804 24.15C5.76804 23.65 5.16804 23.15 4.66804 22.65C3.46804 21.45 2.56804 20.15 1.96804 18.85C0.968036 16.75 0.768036 14.75 0.868036 13.05C0.968036 11.35 1.26804 10.15 1.56804 9.25005C1.76804 8.45005 2.06804 8.05005 1.96804 8.05005C1.96804 8.05005 1.86804 8.55005 1.86804 9.45005C1.76804 10.25 1.76804 11.55 1.96804 13.05Z" fill="#CFAA59"/>
<path d="M5.86804 24.95C5.56804 26.05 5.06804 27.05 4.56804 28.05C4.36804 28.55 4.06804 29.05 3.86804 29.55C3.76804 29.85 3.66804 30.05 3.56804 30.25C3.46804 30.45 3.36804 30.65 3.26804 30.95C2.96804 31.85 2.76804 32.75 2.76804 33.65C2.66804 35.35 3.06804 37.05 3.76804 38.25C4.36804 39.45 5.36804 40.25 6.06804 40.55C6.76804 40.95 7.26804 41.05 7.26804 41.05C7.26804 41.05 6.76804 41.05 5.96804 40.85C5.16804 40.65 3.86804 40.05 2.86804 38.85C1.86804 37.65 1.06804 35.75 0.868038 33.65C0.768038 32.55 0.868038 31.45 1.26804 30.25C1.36804 29.95 1.46804 29.65 1.56804 29.35C1.66804 29.05 1.76804 28.75 1.86804 28.55L2.56804 27.05C3.06804 26.05 3.46804 25.05 3.86804 24.15C3.96804 23.85 4.16804 23.45 4.26804 23.15C4.86804 23.75 5.46804 24.25 6.06804 24.65C5.96804 24.75 5.86804 24.85 5.86804 24.95Z" fill="#CFAA59"/>
<path d="M5.46802 19.65L5.56802 19.05C5.66802 18.65 5.76802 18.25 5.76802 17.85C5.76802 17.05 5.76802 16.35 5.56802 15.65C5.26802 14.35 4.56802 13.35 3.96802 12.85C3.36802 12.25 2.96802 12.05 2.96802 12.05C2.96802 12.05 3.46802 12.15 4.16802 12.55C4.96802 12.95 5.96802 13.85 6.66802 15.25C6.96802 15.95 7.26802 16.85 7.36802 17.85C7.46802 18.35 7.46802 18.85 7.36802 19.35C7.26802 19.85 7.26802 20.35 7.16802 20.85C7.16802 20.95 7.16802 21.15 7.06802 21.25C6.46802 20.65 5.96802 20.15 5.46802 19.65Z" fill="#CFAA59"/>
<rect x="112" y="4" width="1664" height="1" fill="#CFAA59"/>
<path d="M1869.33 12.45C1870.43 10.45 1872.13 8.35005 1874.53 6.45005C1875.73 5.45005 1877.03 4.55005 1878.53 3.85005C1879.23 3.45005 1880.03 3.05005 1880.83 2.75005L1881.23 2.65005L1881.83 2.55005C1882.23 2.45005 1882.63 2.35005 1882.93 2.25005C1883.73 2.15005 1884.43 2.15005 1885.23 2.05005C1885.33 2.85005 1885.43 3.55005 1885.43 4.25005C1885.43 4.65005 1885.43 5.05005 1885.43 5.45005C1885.43 5.65005 1885.43 5.85005 1885.33 6.05005V6.35005V6.55005C1885.13 7.45005 1884.83 8.35005 1884.53 9.15005C1883.83 10.75 1882.93 12.15 1882.03 13.35C1880.13 15.75 1877.93 17.45 1876.03 18.55C1874.03 19.65 1872.33 20.25 1871.13 20.4501C1869.93 20.75 1869.23 20.65 1869.23 20.75C1869.23 20.75 1871.93 19.95 1875.13 17.25C1876.73 15.85 1878.43 14.05 1879.83 11.75C1880.43 10.55 1881.03 9.25005 1881.53 7.95005C1881.73 7.25005 1881.93 6.65005 1882.03 5.95005V5.85005L1881.83 5.95005C1881.13 6.15005 1880.43 6.45005 1879.83 6.75005C1878.53 7.35005 1877.23 8.05005 1876.13 8.75005C1873.83 10.25 1872.03 11.85 1870.63 13.45C1869.33 15.05 1868.53 16.55 1868.23 17.65C1867.93 18.75 1867.93 19.4501 1867.93 19.4501C1867.93 19.4501 1867.73 18.75 1867.73 17.55C1867.73 16.35 1868.23 14.45 1869.33 12.45Z" fill="#CFAA59"/>
<path d="M1866.43 20.55C1868.03 20.55 1868.03 23.05 1866.43 23.05C1864.83 23.05 1864.83 20.55 1866.43 20.55Z" fill="#CFAA59"/>
<path d="M1875.23 14.85C1872.93 14.85 1872.93 11.35 1875.23 11.35C1877.53 11.35 1877.53 14.85 1875.23 14.85Z" fill="#CFAA59"/>
<path d="M1856.63 29.15C1856.63 29.05 1856.63 28.95 1856.73 28.85C1856.73 28.75 1856.83 28.65 1856.83 28.45C1856.93 28.25 1856.93 27.95 1857.03 27.75C1857.23 27.25 1857.43 26.85 1857.73 26.45C1858.03 26.05 1858.43 25.75 1858.73 25.65C1859.53 25.35 1860.13 25.45 1860.53 25.55C1860.93 25.65 1861.13 25.75 1861.13 25.75C1861.13 25.75 1860.93 25.75 1860.53 25.85C1860.23 25.95 1859.73 26.15 1859.33 26.55C1859.03 26.95 1858.83 27.55 1858.73 28.25C1858.73 28.45 1858.73 28.65 1858.63 28.85V29.15C1858.63 29.25 1858.63 29.15 1858.63 29.25C1858.63 29.25 1858.73 29.25 1858.83 29.15L1859.13 29.05C1859.33 28.95 1859.53 28.95 1859.73 28.85C1860.43 28.55 1860.93 28.25 1861.23 27.85C1861.53 27.45 1861.73 26.95 1861.83 26.55C1861.93 26.15 1861.93 25.95 1861.93 25.95C1861.93 25.95 1862.03 26.15 1862.13 26.55C1862.23 26.95 1862.43 27.55 1862.23 28.25C1862.13 28.65 1861.93 29.05 1861.63 29.45C1861.33 29.85 1860.93 30.15 1860.53 30.45C1860.33 30.55 1860.13 30.75 1859.93 30.85C1859.83 30.95 1859.73 30.95 1859.63 31.05C1859.53 31.15 1859.43 31.15 1859.23 31.25C1858.33 31.55 1857.43 31.85 1856.43 32.25H1856.33C1856.33 31.25 1856.33 30.35 1856.53 29.45L1856.63 29.15Z" fill="#CFAA59"/>
<path d="M1857.23 21.25C1857.33 21.25 1857.43 21.15 1857.43 21.15C1857.53 21.15 1857.63 21.05 1857.73 21.05C1857.93 20.95 1858.13 20.95 1858.33 20.85C1858.73 20.75 1859.13 20.75 1859.53 20.75C1859.93 20.75 1860.33 20.85 1860.63 21.05C1861.23 21.45 1861.53 21.95 1861.63 22.25C1861.73 22.55 1861.73 22.75 1861.73 22.75C1861.73 22.75 1861.63 22.65 1861.33 22.45C1861.13 22.25 1860.73 22.05 1860.23 21.95C1859.83 21.95 1859.33 22.05 1858.73 22.35C1858.63 22.45 1858.43 22.55 1858.33 22.55L1858.13 22.65C1858.13 22.65 1858.03 22.65 1858.13 22.65L1858.23 22.75L1858.43 22.95C1858.53 23.05 1858.73 23.15 1858.83 23.25C1859.33 23.65 1859.83 23.85 1860.33 23.85C1860.83 23.85 1861.23 23.75 1861.53 23.65C1861.83 23.55 1862.03 23.45 1862.03 23.45C1862.03 23.45 1861.93 23.65 1861.73 23.85C1861.53 24.15 1861.23 24.55 1860.53 24.75C1860.23 24.85 1859.83 24.95 1859.43 24.95C1859.03 24.95 1858.63 24.85 1858.23 24.65C1858.03 24.55 1857.83 24.45 1857.63 24.35C1857.53 24.25 1857.43 24.25 1857.33 24.15C1857.23 24.05 1857.23 24.05 1857.03 23.95C1856.43 23.55 1855.73 23.05 1855.03 22.45H1854.93C1855.63 21.95 1856.23 21.55 1856.93 21.15L1857.23 21.25Z" fill="#CFAA59"/>
<path d="M1863.73 26.75C1864.03 26.55 1864.13 26.45 1864.13 26.45C1864.13 26.45 1864.03 26.65 1863.93 26.95C1863.83 27.25 1863.73 27.65 1863.73 28.15C1863.73 28.65 1863.93 29.0499 1864.33 29.5499C1864.43 29.6499 1864.53 29.85 1864.63 29.95L1864.83 30.15C1864.83 30.2499 1864.93 30.35 1864.93 30.25L1865.03 30.0499C1865.13 29.8499 1865.23 29.7499 1865.23 29.65C1865.53 29.05 1865.63 28.55 1865.63 28.15C1865.63 27.75 1865.33 27.35 1865.23 27.15C1865.03 26.95 1864.93 26.85 1864.93 26.75C1864.93 26.75 1865.13 26.75 1865.43 26.85C1865.73 26.95 1866.23 27.15 1866.53 27.75C1866.73 28.05 1866.83 28.45 1866.83 28.85C1866.83 29.25 1866.83 29.6499 1866.73 30.0499C1866.73 30.2499 1866.63 30.4499 1866.53 30.65C1866.53 30.7499 1866.43 30.85 1866.43 30.95C1866.43 30.95 1866.33 31.05 1866.33 31.15L1866.23 31.45C1865.83 32.15 1865.43 32.8499 1865.03 33.5499C1864.53 32.8499 1864.03 32.2499 1863.63 31.5499C1863.53 31.3499 1863.53 31.35 1863.43 31.25C1863.33 31.15 1863.33 31.05 1863.33 30.95C1863.23 30.75 1863.13 30.55 1863.03 30.35C1862.93 29.95 1862.83 29.55 1862.73 29.15C1862.73 28.7499 1862.73 28.3499 1862.93 28.0499C1863.03 27.3499 1863.43 26.95 1863.73 26.75Z" fill="#CFAA59"/>
<path d="M1848.93 9.05004L1849.23 8.75004L1849.43 8.55004C1850.23 7.85004 1851.03 7.25004 1851.83 6.65004C1853.53 5.65004 1855.33 5.05004 1856.83 4.85004C1858.33 4.65004 1859.53 4.85004 1860.33 5.15004C1861.13 5.35004 1861.53 5.55004 1861.53 5.55004C1861.53 5.55004 1861.13 5.55004 1860.33 5.65004C1859.53 5.75004 1858.53 5.95004 1857.33 6.45004C1856.13 6.95004 1854.83 7.75004 1853.53 8.85004C1852.93 9.45004 1852.23 10.05 1851.63 10.75C1851.53 10.85 1851.63 10.85 1851.63 10.85C1851.63 10.85 1851.93 10.85 1852.13 10.85C1853.03 10.95 1853.93 10.85 1854.73 10.75C1856.33 10.55 1857.73 9.85004 1858.73 8.95004C1859.73 8.15004 1860.43 7.15004 1860.83 6.55004C1861.23 5.85004 1861.43 5.45004 1861.43 5.45004C1861.43 5.45004 1861.43 5.95004 1861.23 6.75004C1861.03 7.55004 1860.73 8.75004 1859.83 10.05C1858.93 11.35 1857.33 12.75 1855.33 13.45C1854.33 13.75 1853.13 13.95 1852.03 14.05C1851.73 14.05 1851.53 14.05 1851.03 14.05C1850.53 14.05 1850.03 13.95 1849.53 13.85C1849.03 13.75 1848.53 13.65 1848.03 13.55L1846.73 13.15L1845.83 12.85C1846.43 12.05 1846.83 11.35 1847.43 10.55C1847.73 10.15 1848.03 9.75004 1848.43 9.45004C1848.53 9.35004 1848.73 9.15004 1848.93 9.05004Z" fill="#CFAA59"/>
<path d="M1856.73 9.65001C1855.13 9.35001 1855.63 6.85001 1857.23 7.25001C1858.83 7.55001 1858.33 9.95001 1856.73 9.65001Z" fill="#CFAA59"/>
<path d="M1843.53 5.25C1845.13 5.25 1845.13 7.75 1843.53 7.75C1841.83 7.75 1841.83 5.25 1843.53 5.25Z" fill="#CFAA59"/>
<path d="M1839.43 15.55C1837.23 15.55 1837.23 12.05 1839.43 12.05C1841.73 12.05 1841.73 15.55 1839.43 15.55Z" fill="#CFAA59"/>
<path d="M1832.33 10.95C1832.33 10.95 1832.43 8.94997 1832.73 7.94997C1833.23 6.44997 1833.93 4.84997 1835.03 3.54997C1835.43 3.14997 1835.93 2.74997 1836.33 2.34997C1837.53 1.64997 1838.93 1.24997 1840.13 1.24997C1841.33 1.14997 1842.43 1.34997 1843.43 1.74997C1844.23 2.04997 1845.03 2.64997 1845.53 3.24997C1846.53 4.54997 1846.63 5.84997 1846.63 6.54997C1846.63 7.34997 1846.43 7.74997 1846.43 7.74997C1846.43 7.74997 1846.53 7.34997 1846.43 6.54997C1846.33 5.74997 1846.13 4.54997 1845.03 3.54997C1843.93 2.54997 1842.03 1.94997 1839.93 2.34997C1838.93 2.54997 1837.83 2.94997 1837.03 3.74997C1836.83 3.84997 1836.73 4.04997 1836.63 4.14997C1836.63 4.14997 1834.43 6.84997 1834.63 10.55C1834.63 10.65 1834.33 13.15 1836.23 14.95C1837.63 16.25 1840.03 19.45 1848.43 19.25C1848.53 19.05 1848.63 18.95 1848.73 18.75C1848.83 18.65 1848.93 18.45 1849.03 18.35C1849.13 18.25 1849.23 18.25 1849.33 18.15C1849.13 18.15 1848.83 18.15 1848.63 18.15C1847.53 18.05 1846.63 17.65 1845.73 17.25C1844.93 16.75 1844.13 16.15 1843.63 15.45C1843.13 14.75 1842.93 13.85 1843.03 13.25C1843.13 12.65 1843.23 12.45 1843.23 12.45C1843.23 12.45 1843.23 12.75 1843.33 13.15C1843.43 13.55 1843.83 13.95 1844.33 14.35C1845.43 15.35 1847.43 16.05 1850.43 16.15L1853.73 15.95C1853.93 15.95 1854.03 15.85 1854.23 15.85C1855.53 15.75 1857.63 15.35 1857.63 15.35C1857.63 15.35 1855.53 16.35 1854.43 17.15C1853.73 17.65 1852.83 18.35 1851.83 19.15C1853.33 18.85 1854.83 18.25 1856.23 17.55C1857.13 17.05 1858.23 16.75 1859.13 16.25C1856.23 18.65 1853.03 20.15 1849.93 20.85C1849.83 20.95 1849.73 21.15 1849.53 21.35C1849.23 21.75 1849.03 22.15 1848.83 22.55C1848.43 23.35 1848.13 24.15 1848.13 24.75C1848.03 25.45 1848.23 25.95 1848.43 26.35C1848.63 26.75 1848.83 26.85 1848.73 26.85C1848.73 26.85 1848.53 26.85 1848.23 26.65C1847.93 26.45 1847.33 26.05 1847.13 24.95C1846.93 23.95 1847.03 22.65 1847.43 21.45C1847.43 21.35 1847.43 21.35 1847.53 21.25C1847.03 21.35 1846.63 21.35 1846.13 21.35C1834.63 21.85 1832.33 12.75 1832.33 10.95Z" fill="#CFAA59"/>
<path d="M1821.33 5.54995C1818.13 6.44995 1814.53 6.74995 1810.73 6.34995C1810.23 6.34995 1809.83 6.24995 1809.43 6.24995C1809.73 6.44995 1810.03 6.64995 1810.43 6.84995C1811.43 7.34995 1812.63 7.64995 1814.13 7.84995C1816.93 8.24995 1820.53 7.94995 1824.43 6.84995C1825.43 6.54995 1826.33 6.24995 1827.43 5.84995C1828.53 5.44995 1829.63 5.04995 1830.83 4.74995C1831.83 4.44995 1832.93 4.24995 1834.23 4.14995C1833.63 5.14995 1833.13 6.14995 1832.73 7.24995C1832.33 7.34995 1831.83 7.34995 1831.43 7.44995C1830.33 7.64995 1829.23 7.94995 1828.13 8.24995C1827.13 8.54995 1825.93 8.84995 1824.83 9.04995C1820.53 9.84995 1816.73 9.74995 1813.83 9.04995C1812.33 8.64995 1811.13 8.14995 1810.13 7.54995C1809.53 7.14995 1809.03 6.74995 1808.63 6.24995C1805.73 5.74995 1803.03 4.84995 1800.63 4.24995C1799.13 3.84995 1797.63 3.54995 1796.23 3.34995C1794.83 3.14995 1793.53 3.04995 1792.43 3.14995C1790.03 3.24995 1788.13 3.74995 1786.83 4.14995C1785.53 4.54995 1784.83 4.84995 1784.83 4.84995C1784.83 4.84995 1785.43 4.44995 1786.73 3.84995C1787.93 3.24995 1789.83 2.54995 1792.33 2.14995C1793.53 1.94995 1794.93 1.94995 1796.43 2.04995C1797.93 2.14995 1799.43 2.34995 1801.03 2.74995C1803.03 3.14995 1805.13 3.74995 1807.33 4.14995V4.04995H1807.43C1807.43 4.04995 1807.43 4.04995 1807.43 4.14995C1808.63 4.34995 1809.83 4.64995 1811.13 4.74995C1814.73 5.14995 1818.13 4.94995 1821.23 4.24995C1824.33 3.64995 1827.03 2.64995 1829.43 2.14995C1831.83 1.64995 1833.83 1.44995 1835.23 1.44995C1836.63 1.44995 1837.33 1.64995 1837.33 1.54995C1837.33 1.54995 1834.23 1.44995 1829.73 2.94995C1827.13 3.64995 1824.53 4.74995 1821.33 5.54995Z" fill="#CFAA59"/>
<path d="M1819.73 10.65C1820.23 10.95 1820.83 11.05 1821.63 11.15C1822.43 11.15 1823.33 11.05 1824.43 10.85C1826.53 10.45 1828.93 9.55 1832.03 8.75H1832.13C1832.03 9.05 1831.93 9.45 1831.93 9.85V9.95C1831.93 10.25 1831.83 10.65 1831.83 10.95C1829.03 11.35 1826.53 11.85 1824.43 11.95C1823.33 11.95 1822.33 11.95 1821.53 11.75C1820.73 11.55 1820.03 11.25 1819.53 10.85C1819.03 10.45 1818.83 10.15 1818.63 9.85C1818.43 9.65 1818.43 9.45 1818.43 9.45C1818.43 9.45 1818.53 9.55 1818.73 9.75C1818.93 10.15 1819.23 10.45 1819.73 10.65Z" fill="#CFAA59"/>
<path d="M1840.43 10.25C1840.83 10.75 1841.13 11.35 1841.43 11.85C1841.03 11.15 1840.33 10.65 1839.33 10.65C1838.53 10.65 1837.93 10.95 1837.53 11.45C1837.33 11.25 1837.03 11.15 1836.73 11.05C1836.33 10.95 1835.83 10.85 1835.33 10.85C1835.13 9.65002 1835.53 8.15002 1835.53 8.15002C1836.83 8.45002 1839.63 9.25002 1840.43 10.25Z" fill="#CFAA59"/>
<path d="M1837.43 4.54998C1837.93 4.84998 1838.43 5.34998 1838.63 5.94998C1838.73 6.24998 1838.83 6.54998 1838.83 6.84998C1838.83 7.14998 1838.83 7.74998 1839.43 8.34998L1835.53 7.24998C1835.53 7.14998 1836.43 5.04998 1837.13 4.34998C1837.23 4.54998 1837.33 4.54998 1837.43 4.54998Z" fill="#CFAA59"/>
<path d="M1827.03 19.25H1827.33C1827.53 19.25 1827.63 19.25 1827.83 19.15C1828.43 19.05 1828.93 18.85 1829.33 18.55C1829.63 18.25 1829.83 17.85 1829.93 17.55C1830.03 17.25 1830.03 17.05 1830.03 17.05C1830.03 17.05 1830.13 17.25 1830.23 17.55C1830.33 17.85 1830.43 18.45 1830.13 19.15C1830.03 19.45 1829.73 19.85 1829.43 20.05C1829.13 20.35 1828.73 20.55 1828.33 20.75C1828.13 20.85 1827.93 20.95 1827.73 20.95C1827.63 20.95 1827.53 21.05 1827.43 21.05C1827.43 21.05 1827.23 21.05 1827.23 21.15H1826.93C1826.13 21.25 1825.33 21.25 1824.53 21.35V21.25C1824.83 20.45 1825.03 19.55 1825.33 18.85C1825.43 18.65 1825.43 18.55 1825.43 18.45C1825.43 18.35 1825.53 18.25 1825.53 18.15C1825.63 17.95 1825.73 17.75 1825.83 17.55C1826.03 17.15 1826.33 16.85 1826.63 16.55C1826.93 16.25 1827.33 16.05 1827.63 16.05C1828.33 15.85 1828.83 15.95 1829.13 16.05C1829.43 16.15 1829.63 16.25 1829.63 16.25C1829.63 16.25 1829.43 16.25 1829.13 16.35C1828.83 16.45 1828.43 16.55 1828.03 16.85C1827.63 17.15 1827.43 17.65 1827.23 18.25C1827.23 18.45 1827.13 18.55 1827.13 18.75L1827.03 19.05C1827.03 19.05 1826.93 19.25 1827.03 19.25Z" fill="#CFAA59"/>
<path d="M1832.93 16.75C1832.73 16.55 1832.63 16.45 1832.63 16.45C1832.63 16.45 1832.83 16.45 1833.03 16.55C1833.33 16.65 1833.73 16.85 1834.03 17.35C1834.23 17.65 1834.33 17.95 1834.33 18.25C1834.33 18.65 1834.33 18.95 1834.23 19.35C1834.23 19.55 1834.13 19.75 1834.13 19.85C1834.13 19.95 1834.03 20.05 1834.03 20.15C1834.03 20.15 1833.93 20.25 1833.93 20.35L1833.83 20.55C1833.53 21.15 1833.13 21.75 1832.73 22.35C1832.23 21.75 1831.83 21.15 1831.43 20.65C1831.33 20.45 1831.33 20.45 1831.23 20.35C1831.23 20.25 1831.13 20.15 1831.13 20.15C1831.03 19.95 1830.93 19.85 1830.93 19.65C1830.83 19.35 1830.73 18.95 1830.63 18.55C1830.63 18.15 1830.63 17.85 1830.73 17.55C1830.93 16.95 1831.23 16.65 1831.53 16.45C1831.73 16.25 1831.83 16.25 1831.83 16.25C1831.83 16.25 1831.73 16.35 1831.63 16.65C1831.53 16.95 1831.43 17.25 1831.43 17.65C1831.43 18.05 1831.63 18.45 1831.93 18.95C1832.03 19.05 1832.13 19.15 1832.23 19.25L1832.33 19.45C1832.33 19.55 1832.43 19.65 1832.43 19.55L1832.53 19.35C1832.63 19.25 1832.63 19.05 1832.73 18.95C1832.93 18.45 1833.13 18.05 1833.03 17.65C1833.23 17.25 1833.03 16.95 1832.93 16.75Z" fill="#CFAA59"/>
<path d="M1823.13 13.85C1823.73 13.45 1824.33 13.05 1824.93 12.75L1825.13 12.65C1825.23 12.65 1825.33 12.55 1825.33 12.55C1825.43 12.55 1825.53 12.45 1825.63 12.45C1825.83 12.35 1826.03 12.35 1826.13 12.25C1826.53 12.15 1826.83 12.15 1827.23 12.15C1827.63 12.15 1827.93 12.25 1828.13 12.35C1828.63 12.65 1828.83 13.05 1828.93 13.35C1829.03 13.65 1829.03 13.75 1829.03 13.75C1829.03 13.75 1828.93 13.65 1828.73 13.45C1828.53 13.25 1828.23 13.15 1827.83 13.05C1827.43 13.05 1827.03 13.15 1826.53 13.45C1826.43 13.55 1826.33 13.55 1826.13 13.65L1825.93 13.75L1826.03 13.85L1826.23 14.15C1826.33 14.25 1826.43 14.35 1826.53 14.35C1826.93 14.65 1827.43 14.85 1827.83 14.85C1828.23 14.85 1828.63 14.75 1828.83 14.65C1829.13 14.55 1829.23 14.45 1829.23 14.45C1829.23 14.45 1829.13 14.55 1829.03 14.85C1828.83 15.05 1828.53 15.45 1828.03 15.65C1827.73 15.75 1827.43 15.85 1827.03 15.85C1826.63 15.85 1826.33 15.75 1825.93 15.65C1825.73 15.55 1825.63 15.55 1825.43 15.45C1825.33 15.45 1825.23 15.35 1825.23 15.35C1825.13 15.35 1825.13 15.25 1824.93 15.15C1824.33 14.75 1823.73 14.35 1823.13 13.85Z" fill="#CFAA59"/>
<path d="M1831.03 15.75C1829.43 15.75 1829.43 13.25 1831.03 13.25C1832.63 13.25 1832.63 15.75 1831.03 15.75Z" fill="#CFAA59"/>
<path d="M1875.33 1.84999C1873.83 2.04999 1872.03 2.44999 1870.43 3.44999C1869.63 3.84999 1868.93 4.44999 1868.23 5.04999C1867.63 5.54999 1867.13 6.04999 1866.63 6.64999C1866.33 6.94999 1866.13 7.24999 1865.83 7.64999C1865.13 8.54999 1864.63 9.54999 1864.23 10.45C1863.83 11.45 1863.43 12.35 1863.23 13.35C1862.73 15.25 1862.53 17.15 1862.63 18.65C1862.63 20.25 1862.93 21.45 1863.23 22.25C1863.53 23.05 1863.83 23.45 1863.83 23.45C1863.83 23.45 1863.43 23.15 1862.93 22.35C1862.43 21.65 1861.83 20.35 1861.43 18.75C1861.03 17.15 1860.93 15.15 1861.23 12.95C1861.43 11.85 1861.63 10.75 1862.13 9.54999C1862.53 8.44999 1863.13 7.24999 1863.93 6.24999C1864.03 6.14999 1864.03 6.04999 1864.13 6.04999C1864.63 5.44999 1865.13 4.84999 1865.73 4.24999C1866.93 3.14999 1868.23 2.24999 1869.63 1.64999C1871.73 0.749989 1873.83 0.549989 1875.43 0.649989C1876.93 0.849989 1878.23 1.24999 1879.13 1.54999C1879.93 1.84999 1880.33 2.04999 1880.33 2.04999C1880.33 2.04999 1879.83 1.94999 1878.93 1.84999C1878.13 1.74999 1876.83 1.64999 1875.33 1.84999Z" fill="#CFAA59"/>
<path d="M1863.43 5.55C1862.33 5.15 1861.33 4.75 1860.33 4.25C1859.83 4.05 1859.33 3.75 1858.83 3.45C1858.53 3.35 1858.33 3.25 1858.13 3.15C1857.93 3.05 1857.73 2.95 1857.43 2.85C1856.53 2.55 1855.63 2.35 1854.73 2.25C1852.93 2.15 1851.33 2.45 1850.13 3.05C1848.93 3.65 1848.13 4.55 1847.73 5.25C1847.33 5.95 1847.23 6.45 1847.23 6.45C1847.23 6.45 1847.23 5.95 1847.43 5.15C1847.63 4.35 1848.23 3.15 1849.53 2.05C1850.83 1.05 1852.63 0.25 1854.83 0.25C1855.93 0.25 1857.03 0.35 1858.23 0.65C1858.53 0.75 1858.83 0.85 1859.03 0.95C1859.33 1.05 1859.63 1.25 1859.83 1.35L1861.33 2.05C1862.33 2.55 1863.33 2.95 1864.23 3.35C1864.53 3.45 1864.93 3.65 1865.23 3.75C1864.63 4.25 1864.13 4.85 1863.63 5.55C1863.63 5.55 1863.53 5.55 1863.43 5.55Z" fill="#CFAA59"/>
<path d="M1868.73 5.24995L1869.33 5.44995C1869.73 5.54995 1870.13 5.64995 1870.53 5.64995C1871.33 5.74995 1872.03 5.64995 1872.73 5.44995C1874.03 5.14995 1875.03 4.44995 1875.63 3.94995C1876.23 3.34995 1876.43 2.94995 1876.43 2.94995C1876.43 2.94995 1876.33 3.44995 1875.93 4.14995C1875.53 4.84995 1874.63 5.94995 1873.13 6.54995C1872.43 6.84995 1871.53 7.14995 1870.53 7.24995C1870.03 7.24995 1869.53 7.24995 1869.03 7.24995C1868.53 7.14995 1868.13 7.14995 1867.53 7.04995C1867.43 7.04995 1867.23 6.94995 1867.13 6.94995C1867.63 6.24995 1868.13 5.74995 1868.73 5.24995Z" fill="#CFAA59"/>
<path d="M1878.33 39.3501L1878.63 39.0501L1878.83 38.8501C1879.53 38.0501 1880.23 37.2501 1880.73 36.3501C1881.83 34.6501 1882.43 32.9501 1882.63 31.4501C1882.83 29.9501 1882.63 28.7501 1882.43 27.9501C1882.23 27.2501 1882.03 26.8501 1882.03 26.8501C1882.03 26.8501 1882.03 27.2501 1881.93 28.0501C1881.83 28.8501 1881.63 29.8501 1881.03 31.0501C1880.53 32.2501 1879.63 33.5501 1878.53 34.7501C1877.93 35.3501 1877.33 35.9501 1876.63 36.6501C1876.53 36.7501 1876.53 36.7501 1876.53 36.6501C1876.53 36.6501 1876.53 36.3501 1876.53 36.1501C1876.53 35.2501 1876.53 34.3501 1876.73 33.5501C1877.03 31.9501 1877.73 30.5501 1878.53 29.5501C1879.43 28.5501 1880.33 27.8501 1881.03 27.4501C1881.73 27.0501 1882.13 26.8501 1882.13 26.8501C1882.13 26.8501 1881.63 26.8501 1880.83 26.9501C1880.03 27.0501 1878.83 27.3501 1877.43 28.2501C1876.13 29.0501 1874.73 30.6501 1873.93 32.7501C1873.53 33.7501 1873.33 34.8501 1873.33 36.0501C1873.33 36.3501 1873.33 36.5501 1873.33 37.0501C1873.33 37.5501 1873.43 38.0501 1873.43 38.5501C1873.53 39.0501 1873.63 39.5501 1873.73 40.0501L1874.13 41.3501L1874.43 42.2501C1875.23 41.7501 1875.93 41.2501 1876.73 40.6501C1877.13 40.3501 1877.53 40.0501 1877.83 39.7501C1877.93 39.7501 1878.13 39.5501 1878.33 39.3501Z" fill="#CFAA59"/>
<path d="M1877.83 31.55C1878.13 33.15 1880.63 32.65 1880.33 31.05C1880.03 29.45 1877.53 29.95 1877.83 31.55Z" fill="#CFAA59"/>
<path d="M1881.93 44.85C1881.93 43.25 1879.43 43.15 1879.43 44.75C1879.43 46.45 1881.93 46.45 1881.93 44.85Z" fill="#CFAA59"/>
<path d="M1871.63 48.65C1871.53 50.95 1875.03 50.95 1875.13 48.75C1875.13 46.55 1871.63 46.45 1871.63 48.65Z" fill="#CFAA59"/>
<path d="M1876.03 55.95C1876.03 55.95 1878.03 55.85 1879.03 55.55C1880.53 55.05 1882.23 54.35 1883.43 53.35C1883.83 52.95 1884.23 52.55 1884.63 52.05C1885.43 50.85 1885.93 49.55 1885.93 48.35C1886.03 47.15 1885.83 46.05 1885.53 45.05C1885.23 44.05 1884.63 43.35 1884.03 42.85C1882.73 41.75 1881.43 41.65 1880.73 41.65C1879.93 41.65 1879.53 41.75 1879.53 41.75C1879.53 41.75 1879.93 41.65 1880.73 41.75C1881.53 41.85 1882.73 42.15 1883.73 43.25C1884.73 44.35 1885.23 46.25 1884.83 48.35C1884.63 49.35 1884.13 50.45 1883.33 51.25C1883.23 51.35 1883.03 51.55 1882.83 51.65C1882.83 51.65 1880.13 53.85 1876.43 53.45C1876.33 53.45 1873.83 53.75 1872.03 51.75C1870.73 50.25 1867.63 47.85 1868.03 39.45C1868.23 39.35 1868.33 39.25 1868.53 39.15C1868.63 39.05 1868.83 38.95 1868.93 38.85C1869.03 38.75 1869.13 38.65 1869.23 38.55C1869.23 38.75 1869.23 39.05 1869.23 39.25C1869.33 40.35 1869.63 41.35 1870.13 42.15C1870.63 42.95 1871.23 43.75 1871.93 44.25C1872.63 44.75 1873.53 45.05 1874.13 44.95C1874.73 44.85 1874.93 44.75 1874.93 44.75C1874.93 44.75 1874.63 44.75 1874.23 44.65C1873.83 44.55 1873.53 44.15 1873.13 43.65C1872.13 42.55 1871.53 40.55 1871.53 37.55L1871.83 34.25C1871.83 34.05 1871.93 33.95 1871.93 33.75C1872.13 32.45 1872.43 30.35 1872.43 30.35C1872.43 30.35 1871.43 32.45 1870.63 33.45C1870.13 34.15 1869.43 35.05 1868.53 35.95C1868.83 34.45 1869.43 32.95 1870.23 31.55C1870.73 30.65 1871.03 29.55 1871.53 28.65C1869.03 31.55 1867.53 34.65 1866.73 37.75C1866.53 37.85 1866.43 37.95 1866.23 38.15C1865.83 38.45 1865.43 38.65 1865.03 38.85C1864.23 39.25 1863.43 39.45 1862.83 39.55C1862.13 39.65 1861.63 39.45 1861.23 39.25C1860.93 39.05 1860.73 38.85 1860.73 38.85C1860.73 38.85 1860.73 39.05 1860.93 39.35C1861.13 39.65 1861.53 40.25 1862.53 40.45C1863.53 40.75 1864.83 40.65 1866.03 40.25C1866.13 40.25 1866.13 40.25 1866.23 40.15C1866.13 40.65 1866.13 41.05 1866.13 41.55C1865.13 53.35 1874.23 55.85 1876.03 55.95Z" fill="#CFAA59"/>
<path d="M1881.13 67.0501C1880.23 70.1501 1879.73 73.8501 1880.03 77.6501C1880.03 78.0501 1880.13 78.5501 1880.13 78.9501C1879.93 78.6501 1879.73 78.2501 1879.53 77.9501C1879.03 76.9501 1878.73 75.7501 1878.63 74.2501C1878.33 71.4501 1878.73 67.8501 1879.93 63.9501C1880.23 62.9501 1880.63 62.0501 1881.03 60.9501C1881.43 59.8501 1881.83 58.7501 1882.23 57.5501C1882.53 56.5501 1882.83 55.4501 1882.93 54.1501C1881.93 54.7501 1880.93 55.2501 1879.83 55.6501C1879.73 56.0501 1879.63 56.5501 1879.63 56.9501C1879.33 58.0501 1879.03 59.1501 1878.73 60.2501C1878.43 61.2501 1878.03 62.4501 1877.83 63.4501C1876.93 67.7501 1876.93 71.4501 1877.63 74.4501C1877.93 75.9501 1878.43 77.2501 1879.13 78.2501C1879.53 78.8501 1879.93 79.3501 1880.33 79.8501C1880.83 82.7501 1881.53 85.4501 1882.13 87.9501C1882.53 89.4501 1882.83 90.9501 1882.93 92.3501C1883.13 93.7501 1883.23 95.0501 1883.13 96.2501C1882.93 98.6501 1882.43 100.55 1882.03 101.75C1881.63 103.05 1881.23 103.75 1881.23 103.75C1881.23 103.75 1881.63 103.15 1882.23 101.85C1882.83 100.65 1883.63 98.7501 1884.03 96.3501C1884.23 95.0501 1884.33 93.7501 1884.23 92.2501C1884.13 90.7501 1883.93 89.2501 1883.63 87.6501C1883.23 85.6501 1882.73 83.5501 1882.33 81.3501C1882.33 81.3501 1882.33 81.3501 1882.43 81.3501V81.2501C1882.43 81.2501 1882.43 81.2501 1882.33 81.2501C1882.13 80.0501 1881.93 78.8501 1881.83 77.5501C1881.53 73.9501 1881.83 70.5501 1882.53 67.4501C1883.23 64.3501 1884.23 61.6501 1884.83 59.2501C1885.43 56.8501 1885.63 54.8501 1885.63 53.5501C1885.63 52.1501 1885.53 51.4501 1885.53 51.4501C1885.53 51.4501 1885.63 54.5501 1883.93 59.0501C1883.23 61.2501 1882.03 63.8501 1881.13 67.0501Z" fill="#CFAA59"/>
<path d="M1876.03 68.55C1875.83 68.05 1875.63 67.35 1875.63 66.55C1875.63 65.75 1875.73 64.85 1875.93 63.85C1876.33 61.75 1877.33 59.35 1878.13 56.35V56.25C1877.83 56.35 1877.43 56.35 1877.03 56.45H1876.93C1876.63 56.45 1876.23 56.55 1875.93 56.45C1875.53 59.25 1874.93 61.65 1874.83 63.75C1874.73 64.85 1874.83 65.85 1874.93 66.75C1875.13 67.55 1875.43 68.25 1875.73 68.75C1876.13 69.25 1876.43 69.45 1876.63 69.65C1876.83 69.85 1877.03 69.85 1877.03 69.85C1877.03 69.85 1876.93 69.75 1876.73 69.55C1876.53 69.35 1876.23 69.05 1876.03 68.55Z" fill="#CFAA59"/>
<path d="M1876.93 47.8501C1876.43 47.4501 1875.93 47.0501 1875.33 46.8501C1876.03 47.2501 1876.53 47.9501 1876.53 48.9501C1876.53 49.7501 1876.13 50.3501 1875.63 50.7501C1875.83 50.9501 1875.93 51.2501 1876.03 51.5501C1876.13 51.9501 1876.23 52.4501 1876.23 52.9501C1877.43 53.1501 1878.93 52.7501 1878.93 52.7501C1878.53 51.4501 1877.93 48.6501 1876.93 47.8501Z" fill="#CFAA59"/>
<path d="M1882.43 50.9501C1882.13 50.4501 1881.63 49.9501 1881.03 49.7501C1880.73 49.6501 1880.43 49.5501 1880.13 49.5501C1879.83 49.5501 1879.23 49.5501 1878.63 48.8501L1879.63 52.7501C1879.73 52.7501 1881.83 51.8501 1882.53 51.2501C1882.53 51.1501 1882.53 51.0501 1882.43 50.9501Z" fill="#CFAA59"/>
<path d="M1867.53 61.0501V60.7501C1867.53 60.5501 1867.53 60.4501 1867.63 60.2501C1867.73 59.6501 1867.93 59.1501 1868.23 58.7501C1868.53 58.4501 1868.93 58.2501 1869.23 58.1501C1869.53 58.0501 1869.73 58.0501 1869.73 58.0501C1869.73 58.0501 1869.53 57.9501 1869.23 57.8501C1868.93 57.7501 1868.33 57.6501 1867.73 57.8501C1867.43 57.9501 1867.03 58.2501 1866.83 58.5501C1866.53 58.8501 1866.33 59.2501 1866.13 59.6501C1866.03 59.8501 1865.93 60.0501 1865.93 60.2501C1865.93 60.3501 1865.83 60.4501 1865.83 60.5501C1865.83 60.5501 1865.83 60.7501 1865.73 60.7501L1865.63 61.0501C1865.53 61.8501 1865.43 62.6501 1865.33 63.4501H1865.43C1866.23 63.2501 1867.13 62.9501 1867.83 62.7501C1868.03 62.6501 1868.13 62.6501 1868.23 62.6501C1868.33 62.6501 1868.43 62.5501 1868.53 62.5501C1868.73 62.4501 1868.93 62.3501 1869.13 62.2501C1869.53 62.0501 1869.83 61.7501 1870.13 61.4501C1870.43 61.1501 1870.63 60.7501 1870.73 60.4501C1870.93 59.7501 1870.83 59.2501 1870.73 58.9501C1870.63 58.6501 1870.53 58.4501 1870.53 58.4501C1870.53 58.4501 1870.53 58.6501 1870.43 58.9501C1870.33 59.2501 1870.23 59.6501 1869.83 60.0501C1869.53 60.4501 1869.03 60.6501 1868.43 60.8501C1868.23 60.8501 1868.13 60.9501 1867.93 60.9501L1867.63 61.0501C1867.73 61.0501 1867.63 61.1501 1867.53 61.0501C1867.63 61.0501 1867.63 61.0501 1867.53 61.0501C1867.63 61.0501 1867.63 61.0501 1867.53 61.0501Z" fill="#CFAA59"/>
<path d="M1870.23 55.25C1870.43 55.45 1870.53 55.55 1870.53 55.55C1870.53 55.55 1870.53 55.35 1870.43 55.15C1870.33 54.85 1870.13 54.45 1869.63 54.05C1869.33 53.85 1869.03 53.75 1868.73 53.75C1868.33 53.75 1868.03 53.75 1867.63 53.75C1867.43 53.75 1867.23 53.85 1867.13 53.85C1867.03 53.85 1866.93 53.95 1866.83 53.95C1866.83 53.95 1866.73 54.05 1866.63 54.05L1866.43 54.15C1865.83 54.45 1865.23 54.85 1864.63 55.15C1865.23 55.65 1865.83 56.05 1866.33 56.55C1866.53 56.65 1866.53 56.65 1866.63 56.75C1866.73 56.75 1866.83 56.85 1866.83 56.85C1867.03 56.95 1867.13 57.05 1867.33 57.15C1867.63 57.35 1868.03 57.45 1868.43 57.45C1868.83 57.45 1869.13 57.45 1869.43 57.35C1870.03 57.15 1870.33 56.85 1870.53 56.65C1870.73 56.45 1870.83 56.25 1870.83 56.25C1870.83 56.25 1870.73 56.35 1870.43 56.45C1870.13 56.55 1869.83 56.65 1869.43 56.55C1869.03 56.55 1868.63 56.35 1868.23 55.95C1868.13 55.85 1868.03 55.75 1867.93 55.65L1867.73 55.45C1867.73 55.45 1867.53 55.35 1867.63 55.35V55.25C1867.73 55.15 1867.93 55.15 1868.03 55.05C1868.53 54.85 1868.93 54.75 1869.33 54.75C1869.73 54.85 1870.03 55.05 1870.23 55.25Z" fill="#CFAA59"/>
<path d="M1872.93 65.0501C1873.33 64.4501 1873.73 63.9501 1874.03 63.3501L1874.13 63.1501C1874.13 63.0501 1874.23 62.9501 1874.23 62.9501C1874.23 62.8501 1874.33 62.7501 1874.33 62.6501C1874.43 62.4501 1874.43 62.2501 1874.53 62.1501C1874.63 61.7501 1874.63 61.4501 1874.63 61.0501C1874.63 60.6501 1874.53 60.3501 1874.43 60.1501C1874.13 59.6501 1873.73 59.3501 1873.53 59.2501C1873.23 59.1501 1873.13 59.1501 1873.13 59.1501C1873.13 59.1501 1873.23 59.2501 1873.43 59.4501C1873.63 59.6501 1873.73 59.9501 1873.83 60.3501C1873.83 60.7501 1873.73 61.1501 1873.43 61.6501C1873.33 61.7501 1873.33 61.9501 1873.23 62.0501L1873.13 62.2501L1873.03 62.1501L1872.93 61.9501C1872.83 61.8501 1872.73 61.7501 1872.73 61.5501C1872.43 61.0501 1872.33 60.6501 1872.33 60.2501C1872.33 59.8501 1872.43 59.4501 1872.53 59.2501C1872.63 58.9501 1872.73 58.8501 1872.73 58.8501C1872.73 58.8501 1872.63 58.9501 1872.33 59.0501C1872.13 59.2501 1871.73 59.5501 1871.53 60.0501C1871.43 60.3501 1871.33 60.6501 1871.33 61.0501C1871.33 61.4501 1871.43 61.7501 1871.53 62.1501C1871.63 62.3501 1871.63 62.4501 1871.73 62.6501C1871.73 62.7501 1871.83 62.8501 1871.83 62.8501C1871.93 62.9501 1871.93 62.9501 1872.03 63.1501C1872.03 63.7501 1872.43 64.4501 1872.93 65.0501Z" fill="#CFAA59"/>
<path d="M1871.23 57.1501C1871.23 58.7501 1873.73 58.8501 1873.73 57.2501C1873.73 55.5501 1871.23 55.5501 1871.23 57.1501Z" fill="#CFAA59"/>
<path d="M1886.03 13.05C1885.83 14.55 1885.33 16.35 1884.33 17.95C1883.93 18.75 1883.33 19.45 1882.73 20.15C1882.23 20.75 1881.63 21.25 1881.03 21.75C1880.73 22.05 1880.43 22.25 1880.03 22.45C1879.13 23.05 1878.13 23.65 1877.13 24.05C1876.13 24.45 1875.13 24.75 1874.23 24.9501C1872.33 25.35 1870.43 25.5501 1868.93 25.4501C1867.43 25.35 1866.23 25.05 1865.43 24.65C1864.63 24.35 1864.23 24.05 1864.23 24.05C1864.23 24.05 1864.53 24.4501 1865.23 24.9501C1865.93 25.4501 1867.13 26.15 1868.73 26.55C1870.33 26.95 1872.33 27.15 1874.53 26.85C1875.63 26.75 1876.73 26.45 1877.93 26.05C1879.13 25.65 1880.23 25.05 1881.33 24.35C1881.43 24.25 1881.53 24.25 1881.53 24.15C1882.23 23.65 1882.83 23.15 1883.33 22.65C1884.53 21.45 1885.43 20.15 1886.03 18.85C1887.03 16.75 1887.23 14.75 1887.13 13.05C1887.03 11.35 1886.73 10.15 1886.43 9.25005C1886.23 8.45005 1885.93 8.05005 1886.03 8.05005C1886.03 8.05005 1886.13 8.55005 1886.13 9.45005C1886.23 10.25 1886.23 11.55 1886.03 13.05Z" fill="#CFAA59"/>
<path d="M1882.13 24.95C1882.43 26.05 1882.93 27.05 1883.43 28.05C1883.63 28.55 1883.93 29.05 1884.13 29.55C1884.23 29.85 1884.33 30.05 1884.43 30.25C1884.53 30.45 1884.63 30.65 1884.73 30.95C1885.03 31.85 1885.23 32.75 1885.23 33.65C1885.33 35.35 1884.93 37.05 1884.23 38.25C1883.63 39.45 1882.63 40.25 1881.93 40.55C1881.23 40.95 1880.73 41.05 1880.73 41.05C1880.73 41.05 1881.23 41.05 1882.03 40.85C1882.83 40.65 1884.13 40.05 1885.13 38.85C1886.13 37.65 1886.93 35.75 1887.13 33.65C1887.23 32.55 1887.13 31.45 1886.73 30.25C1886.63 29.95 1886.53 29.65 1886.43 29.35C1886.33 29.05 1886.23 28.75 1886.13 28.55L1885.43 27.05C1884.93 26.05 1884.53 25.05 1884.13 24.15C1884.03 23.85 1883.83 23.45 1883.73 23.15C1883.13 23.75 1882.53 24.25 1881.93 24.65C1882.03 24.75 1882.13 24.85 1882.13 24.95Z" fill="#CFAA59"/>
<path d="M1882.53 19.65L1882.43 19.05C1882.33 18.65 1882.23 18.25 1882.23 17.85C1882.23 17.05 1882.23 16.35 1882.43 15.65C1882.73 14.35 1883.43 13.35 1884.03 12.85C1884.63 12.25 1885.03 12.05 1885.03 12.05C1885.03 12.05 1884.53 12.15 1883.83 12.55C1883.03 12.95 1882.03 13.85 1881.33 15.25C1881.03 15.95 1880.73 16.85 1880.63 17.85C1880.53 18.35 1880.53 18.85 1880.63 19.35C1880.73 19.85 1880.73 20.35 1880.83 20.85C1880.83 20.95 1880.83 21.15 1880.93 21.25C1881.53 20.65 1882.03 20.15 1882.53 19.65Z" fill="#CFAA59"/>
</svg>
